<?xml version="1.0" standalone="no"?>
<!DOCTYPE svg PUBLIC "-//W3C//DTD SVG 20010904//EN"
 "http://www.w3.org/TR/2001/REC-SVG-20010904/DTD/svg10.dtd">
<svg version="1.0" xmlns="http://www.w3.org/2000/svg"
 width="432.000000pt" height="432.000000pt" viewBox="0 0 432.000000 432.000000"
 preserveAspectRatio="xMidYMid meet">
<metadata>
Created by potrace 1.14, written by Peter Selinger 2001-2017
</metadata>
<g transform="translate(0.000000,432.000000) scale(0.100000,-0.100000)"
fill="#000000" stroke="none">
<path d="M1490 3767 c-84 -22 -194 -105 -243 -183 -9 -15 240 -202 337 -254
52 -28 129 -54 286 -95 118 -31 301 -80 406 -111 225 -64 330 -80 519 -78 77
1 207 2 288 3 81 1 158 6 172 11 30 11 42 33 66 122 16 58 17 73 7 95 -13 27
-171 124 -328 203 -128 64 -655 216 -885 255 -16 3 -39 7 -50 9 -12 2 -48 7
-80 11 -33 4 -69 10 -80 12 -48 11 -373 10 -415 0z"/>
<path d="M1140 3710 c-41 -16 -133 -50 -205 -75 -394 -141 -445 -161 -445
-173 0 -16 21 -13 150 23 52 15 102 28 111 30 29 6 284 77 347 97 68 22 150
82 151 111 1 23 -20 21 -109 -13z"/>
<path d="M1123 3506 c-12 -6 -63 -49 -114 -96 -51 -47 -113 -103 -138 -125
-25 -22 -64 -57 -86 -77 -22 -20 -49 -45 -61 -55 -12 -10 -67 -61 -124 -113
-56 -52 -109 -99 -116 -103 -20 -11 -17 -37 4 -37 9 0 116 34 237 76 352 121
569 195 585 199 8 3 54 19 102 36 92 33 116 59 75 80 -29 16 -271 190 -278
201 -11 17 -65 26 -86 14z"/>
<path d="M780 3439 c-58 -16 -114 -31 -125 -33 -92 -21 -408 -109 -437 -122
-49 -22 -62 -56 -54 -141 8 -84 32 -244 47 -313 l11 -52 41 38 c23 22 71 67
107 101 36 34 81 76 100 93 19 18 86 80 149 139 62 58 130 121 150 140 131
122 171 162 171 171 0 17 -49 10 -160 -21z"/>
<path d="M1594 3182 c3 -26 8 -81 11 -122 6 -72 9 -115 20 -217 2 -27 7 -82
11 -123 3 -41 7 -91 9 -110 2 -19 6 -73 10 -120 3 -47 8 -96 10 -110 2 -14 7
-65 10 -115 3 -49 9 -93 14 -98 7 -7 156 141 331 333 176 192 225 244 342 364
64 67 116 122 114 123 -2 2 -331 92 -356 98 -8 2 -59 15 -113 30 -53 14 -105
28 -115 30 -15 3 -168 45 -270 74 l-33 9 5 -46z"/>
<path d="M3401 3159 c-38 -81 -44 -114 -27 -153 14 -32 80 -98 176 -176 30
-25 57 -47 60 -50 3 -3 50 -41 105 -85 55 -44 102 -82 105 -85 3 -3 39 -32 80
-65 41 -33 84 -68 94 -78 21 -18 41 -18 41 0 0 9 -37 59 -75 102 -8 9 -60 73
-115 141 -108 134 -405 502 -411 509 -2 2 -17 -25 -33 -60z"/>
<path d="M1505 3169 c-11 -4 -117 -39 -235 -77 -751 -244 -876 -286 -889 -298
-8 -7 -12 -16 -10 -19 3 -3 57 -33 120 -68 63 -35 139 -77 169 -94 30 -17 258
-142 505 -278 248 -136 454 -250 458 -252 8 -5 7 31 -9 207 -5 61 -13 144 -19
205 -2 22 -7 76 -10 120 -4 44 -8 91 -10 105 -2 14 -6 64 -10 112 -3 49 -8 96
-9 105 -2 10 -7 66 -11 126 -4 59 -10 109 -13 111 -4 2 -16 0 -27 -5z"/>
<path d="M2637 2957 c-3 -8 6 -27 20 -43 13 -16 44 -51 68 -79 24 -27 78 -90
121 -140 111 -129 177 -206 189 -219 6 -6 53 -60 105 -121 52 -60 97 -112 100
-115 3 -3 34 -38 68 -79 l63 -74 -6 119 c-9 186 -26 397 -40 514 -11 88 -16
126 -20 145 -2 11 -4 28 -4 38 -1 10 -12 29 -26 42 l-24 25 -304 0 c-247 0
-306 -3 -310 -13z"/>
<path d="M2515 2876 c-25 -18 -731 -723 -773 -772 -18 -21 -30 -39 -28 -41 2
-3 48 -8 102 -13 55 -6 119 -12 144 -14 25 -3 77 -8 115 -11 39 -3 86 -8 105
-10 19 -2 67 -7 105 -10 39 -4 86 -8 105 -10 19 -2 67 -6 105 -9 39 -4 93 -8
120 -11 28 -2 82 -7 120 -10 39 -3 93 -8 120 -10 54 -5 146 -12 290 -20 50 -3
125 -8 168 -11 l78 -5 -15 29 c-24 46 -79 115 -226 282 -74 85 -192 220 -260
300 -69 80 -129 150 -135 156 -5 6 -28 33 -50 60 -118 143 -145 162 -190 130z"/>
<path d="M3385 2852 c-6 -4 -10 -11 -10 -17 1 -10 14 -126 21 -180 2 -16 6
-50 9 -75 3 -25 7 -67 10 -95 8 -84 17 -159 20 -185 2 -14 7 -56 10 -95 4 -38
8 -76 10 -85 1 -8 6 -49 10 -90 8 -83 12 -111 18 -117 5 -4 96 39 432 202 110
53 210 101 223 106 23 9 22 10 -21 46 -70 61 -119 102 -166 141 -25 21 -63 53
-86 72 -22 19 -63 53 -89 75 -27 22 -54 45 -60 50 -6 6 -36 30 -66 55 -30 25
-57 47 -60 50 -15 17 -182 150 -188 150 -4 0 -12 -4 -17 -8z"/>
<path d="M240 2725 c0 -3 11 -23 25 -45 14 -22 25 -41 25 -44 0 -2 18 -34 41
-71 22 -37 49 -82 59 -99 82 -144 276 -476 291 -498 11 -15 19 -29 19 -32 0
-3 98 -174 130 -226 9 -16 107 -183 149 -254 12 -23 38 -66 56 -96 18 -30 42
-71 53 -90 10 -19 74 -129 142 -245 68 -116 157 -268 198 -339 69 -118 76
-127 89 -110 30 42 33 67 58 529 11 193 26 460 30 525 9 133 17 246 18 250 1
3 -2 23 -6 46 -12 72 -39 94 -262 214 -44 24 -141 77 -215 118 -74 41 -164 90
-200 110 -36 20 -198 109 -359 199 -254 141 -341 181 -341 158z"/>
<path d="M3985 2066 c-578 -301 -621 -327 -1240 -770 -121 -86 -251 -180 -290
-207 -38 -27 -126 -90 -195 -139 -69 -49 -147 -104 -173 -122 -26 -18 -56 -40
-67 -48 -11 -8 -37 -28 -60 -43 -37 -26 -51 -47 -32 -47 4 0 116 69 248 154
534 344 996 642 1034 666 21 14 70 44 107 68 37 24 145 92 238 153 268 174
404 261 487 315 72 45 90 65 70 78 -4 2 -61 -24 -127 -58z"/>
<path d="M1723 1965 c-42 -18 -47 -36 -58 -240 -4 -60 -8 -137 -10 -170 -2
-33 -7 -109 -10 -170 -4 -60 -8 -135 -10 -165 -4 -58 -13 -230 -20 -365 -2
-44 -7 -131 -10 -194 -5 -94 -4 -113 7 -104 7 6 105 75 218 155 113 79 306
216 430 304 246 175 296 210 414 294 43 30 95 67 115 81 20 14 131 92 246 174
116 82 236 168 268 191 l59 42 -24 15 c-23 15 -72 24 -177 33 -31 2 -78 6
-106 9 -61 7 -118 12 -210 20 -38 3 -81 8 -95 10 -14 2 -61 6 -105 10 -44 3
-98 8 -120 10 -22 2 -65 7 -95 10 -30 2 -77 7 -105 10 -27 2 -79 7 -115 10
-36 3 -83 7 -105 10 -22 3 -65 7 -95 10 -84 7 -181 16 -220 20 -19 2 -49 -3
-67 -10z"/>
</g>
</svg>
